<mxfile host="app.diagrams.net" modified="2023-07-19T02:14:47.388Z" agent="Mozilla/5.0 (Macintosh; Intel Mac OS X 10_15_7) AppleWebKit/537.36 (KHTML, like Gecko) Chrome/114.0.0.0 Safari/537.36 Edg/114.0.1823.82" version="21.6.3" etag="wWPv5oeErwvqgFl1IHh_" type="github">
  <diagram name="第 1 页" id="RKIQaaTmn2lS1aGWWIIj">
    <mxGraphModel>
      <root>
        <mxCell id="0" />
        <mxCell id="1" parent="0" />
      </root>
    </mxGraphModel>
  </diagram>
</mxfile>
